# xmcd CD database file
#
# Track frame offsets:
#	150
#	14726
#	27151
#	37376
#	47676
#	61221
#	74206
#	84656
#	98819
#	112511
#	125274
#	139164
#	153341
#	166989
#	180409
#	192499
#	205081
#
# Disc length: 2901 seconds
#
# Revision: 0
# Processed by: cddbd v1.4PL0 Copyright (c) Steve Scherf et al.
# Submitted via: CDex 1.50Beta7
#
DISCID=ec0b5311
DTITLE=Dinah Washington  - The Complete Dinah Washington On Mercury, Volume 2 (1950-1952) CD3
DYEAR=1900
DGENRE=Jazz
TTITLE0=Out In The Cold Again
TTITLE1=Hey, Good Looking
TTITLE2=Wheel Of Fortune
TTITLE3=Wheel Of Fortune
TTITLE4=Tell Me Why
TTITLE5=Trouble In Mind
TTITLE6=When The Sun Goes Down
TTITLE7=I Thought About You
TTITLE8=Mad About The Boy
TTITLE9=I Can't Face The Music
TTITLE10=Stormy Weather
TTITLE11=My Devotion
TTITLE12=Makebelieve Dreams
TTITLE13=Pillow Blues
TTITLE14=No Cavier
TTITLE15=Double Dealing Daddy
TTITLE16=Double Dealing Daddy
EXTD=
EXTT0=
EXTT1=
EXTT2=
EXTT3=
EXTT4=
EXTT5=
EXTT6=
EXTT7=
EXTT8=
EXTT9=
EXTT10=
EXTT11=
EXTT12=
EXTT13=
EXTT14=
EXTT15=
EXTT16=
PLAYORDER=
